<svg version="1.1" xmlns="http://www.w3.org/2000/svg" xmlns:xlink="http://www.w3.org/1999/xlink" width="359.99531" height="359.9953" viewBox="0,0,359.99531,359.9953"><defs><linearGradient x1="209.20945" y1="182.75741" x2="361.81325" y2="182.75741" gradientUnits="userSpaceOnUse" id="color-1"><stop offset="0" stop-color="#808cff"/><stop offset="1" stop-color="#7381ff"/></linearGradient><linearGradient x1="140.9338" y1="182.86123" x2="293.53761" y2="182.86123" gradientUnits="userSpaceOnUse" id="color-2"><stop offset="0" stop-color="#80b3ff"/><stop offset="1" stop-color="#73abff"/></linearGradient><linearGradient x1="140.85079" y1="182.77821" x2="293.4546" y2="182.77821" gradientUnits="userSpaceOnUse" id="color-3"><stop offset="0" stop-color="#80d9ff"/><stop offset="1" stop-color="#73d5ff"/></linearGradient></defs><g transform="translate(-60.00235,-0.00236)"><g data-paper-data="{&quot;isPaintingLayer&quot;:true}" fill-rule="nonzero" stroke-linecap="butt" stroke-linejoin="miter" stroke-miterlimit="10" stroke-dasharray="" stroke-dashoffset="0" style="mix-blend-mode: normal"><path d="M60.00235,284.30897c0,-69.82279 0,-169.14801 0,-208.61792c0,-33.28508 42.98349,-75.68869 76.1197,-75.68869c39.6556,0 138.83429,0 208.61798,0c43.63887,0 75.25763,42.7017 75.25763,75.68869c0,39.56896 0,138.71419 0,208.61792c0,43.86201 -42.12141,75.68869 -75.25763,75.68869c-39.87253,0 -138.51743,0 -208.61798,0c-43.21712,0 -76.1197,-31.39216 -76.1197,-75.68869z" fill="#fafafa" stroke="none" stroke-width="0"/><path d="M209.20945,259.05929c0,0 0,-104.50926 0,-129.55324c0,-10.00476 13.09948,-23.05056 24.44068,-23.05056c25.97066,0 128.16312,0 128.16312,0z" fill="url(#color-1)" stroke="none" stroke-width="0"/><path d="M140.9338,259.1631c0,0 0,-104.50921 0,-129.55324c0,-10.00476 13.09948,-23.05056 24.44068,-23.05056c25.97066,0 128.16312,0 128.16312,0z" fill="url(#color-2)" stroke="none" stroke-width="0"/><path d="M140.85079,184.65965c0,0 0,-30.08878 0,-55.13281c0,-10.00476 13.09948,-23.05056 24.44068,-23.05056c25.97066,0 59.88749,0 59.88749,0z" fill="url(#color-3)" stroke="none" stroke-width="0"/><g stroke="#1ae6e6" stroke-width="2.5"><path d="M366,267.1828c0,10.8432 -20.81876,19.63333 -46.5,19.63333c-25.68124,0 -46.5,-8.79014 -46.5,-19.63333c0,-10.8432 20.81876,-19.63333 46.5,-19.63333c25.68124,0 46.5,8.79014 46.5,19.63333z" fill="none"/><path d="M343.7735,306.84446c-9.24859,5.66027 -27.61365,-7.50832 -41.01954,-29.41285c-13.40588,-21.90453 -16.77606,-44.25021 -7.52749,-49.91047c9.24859,-5.66027 27.61365,7.50832 41.01954,29.41285c13.40588,21.90453 16.77606,44.25021 7.52749,49.91047z" fill="none"/><path d="M311.57778,267.1828c0,-4.37532 3.5469,-7.92222 7.92222,-7.92222c4.37532,0 7.92222,3.5469 7.92222,7.92222c0,4.37532 -3.5469,7.92222 -7.92222,7.92222c-4.37532,0 -7.92222,-3.5469 -7.92222,-7.92222z" fill="#1ae6e6"/><path d="M302.75397,256.934c13.40588,-21.90451 31.77095,-35.07311 41.01954,-29.41285c9.24857,5.66026 5.87839,28.00595 -7.52749,49.91047c-13.40588,21.90451 -31.77095,35.07312 -41.01954,29.41285c-9.24857,-5.66026 -5.87841,-28.00595 7.52749,-49.91048z" data-paper-data="{&quot;index&quot;:null}" fill="none"/></g></g></g></svg>