<?xml version="1.0" encoding="utf-8"?>
<svg width="360px" height="360px" viewBox="0 0 360 360" version="1.1" xmlns:xlink="http://www.w3.org/1999/xlink" xmlns="http://www.w3.org/2000/svg">
  <defs>
    <linearGradient gradientUnits="userSpaceOnUse" x1="0" y1="76.30191" x2="152.6038" y2="76.30191" id="gradient_1">
      <stop offset="0%" stop-color="#808CFF" />
      <stop offset="100%" stop-color="#7381FF" />
    </linearGradient>
    <linearGradient gradientUnits="userSpaceOnUse" x1="0" y1="76.30194" x2="152.60379" y2="76.30194" id="gradient_2">
      <stop offset="0%" stop-color="#80B3FF" />
      <stop offset="100%" stop-color="#73ABFF" />
    </linearGradient>
    <linearGradient gradientUnits="userSpaceOnUse" x1="0" y1="76.301926" x2="152.60382" y2="76.301926" id="gradient_3">
      <stop offset="0%" stop-color="#80D9FF" />
      <stop offset="100%" stop-color="#73D5FF" />
    </linearGradient>
  </defs>
  <g id="WuX-UI-for-React">
    <g id="WuX-UI-Icon">
      <path d="M60.999 0L299.001 0Q300.498 0 301.994 0.0734759Q303.49 0.146952 304.98 0.293727Q306.47 0.440502 307.951 0.660222Q309.433 0.879942 310.901 1.17208Q312.37 1.46421 313.823 1.82806Q315.275 2.19191 316.708 2.6266Q318.141 3.06128 319.551 3.56575Q320.961 4.07023 322.344 4.64327Q323.728 5.21632 325.081 5.85656Q326.435 6.4968 327.756 7.20268Q329.076 7.90857 330.361 8.67841Q331.645 9.44825 332.89 10.2802Q334.135 11.1121 335.338 12.0041Q336.541 12.8962 337.698 13.8461Q338.856 14.7961 339.965 15.8017Q341.075 16.8073 342.134 17.8662Q343.193 18.925 344.198 20.0346Q345.204 21.1441 346.154 22.3016Q347.104 23.4592 347.996 24.6619Q348.888 25.8647 349.72 27.1098Q350.552 28.3548 351.322 29.6392Q352.091 30.9236 352.797 32.2443Q353.503 33.5649 354.143 34.9186Q354.784 36.2722 355.357 37.6557Q355.93 39.0391 356.434 40.4491Q356.939 41.859 357.373 43.2919Q357.808 44.7249 358.172 46.1774Q358.536 47.63 358.828 49.0987Q359.12 50.5673 359.34 52.0486Q359.56 53.5298 359.706 55.0201Q359.853 56.5103 359.927 58.0059Q360 59.5016 360 60.999L360 299.001Q360 300.498 359.927 301.994Q359.853 303.49 359.706 304.98Q359.56 306.47 359.34 307.951Q359.12 309.433 358.828 310.901Q358.536 312.37 358.172 313.823Q357.808 315.275 357.373 316.708Q356.939 318.141 356.434 319.551Q355.93 320.961 355.357 322.344Q354.784 323.728 354.143 325.081Q353.503 326.435 352.797 327.756Q352.091 329.076 351.322 330.361Q350.552 331.645 349.72 332.89Q348.888 334.135 347.996 335.338Q347.104 336.541 346.154 337.698Q345.204 338.856 344.198 339.965Q343.193 341.075 342.134 342.134Q341.075 343.193 339.965 344.198Q338.856 345.204 337.698 346.154Q336.541 347.104 335.338 347.996Q334.135 348.888 332.89 349.72Q331.645 350.552 330.361 351.322Q329.076 352.091 327.756 352.797Q326.435 353.503 325.081 354.143Q323.728 354.784 322.344 355.357Q320.961 355.93 319.551 356.434Q318.141 356.939 316.708 357.373Q315.275 357.808 313.823 358.172Q312.37 358.536 310.901 358.828Q309.433 359.12 307.951 359.34Q306.47 359.56 304.98 359.706Q303.49 359.853 301.994 359.927Q300.498 360 299.001 360L60.999 360Q59.5016 360 58.0059 359.927Q56.5103 359.853 55.0201 359.706Q53.5298 359.56 52.0486 359.34Q50.5673 359.12 49.0987 358.828Q47.63 358.536 46.1774 358.172Q44.7249 357.808 43.2919 357.373Q41.859 356.939 40.4491 356.434Q39.0391 355.93 37.6557 355.357Q36.2722 354.784 34.9186 354.143Q33.5649 353.503 32.2443 352.797Q30.9236 352.091 29.6392 351.322Q28.3548 350.552 27.1098 349.72Q25.8647 348.888 24.6619 347.996Q23.4592 347.104 22.3016 346.154Q21.1441 345.204 20.0346 344.198Q18.925 343.193 17.8662 342.134Q16.8073 341.075 15.8017 339.965Q14.7961 338.856 13.8461 337.698Q12.8962 336.541 12.0041 335.338Q11.1121 334.135 10.2802 332.89Q9.44825 331.645 8.67841 330.361Q7.90857 329.076 7.20268 327.756Q6.49679 326.435 5.85656 325.081Q5.21632 323.728 4.64327 322.344Q4.07023 320.961 3.56575 319.551Q3.06128 318.141 2.6266 316.708Q2.19191 315.275 1.82806 313.823Q1.46421 312.37 1.17208 310.901Q0.879942 309.433 0.660222 307.951Q0.440502 306.47 0.293727 304.98Q0.146952 303.49 0.0734759 301.994Q0 300.498 0 299.001L0 60.999Q0 59.5016 0.0734759 58.0059Q0.146952 56.5103 0.293727 55.0201Q0.440502 53.5298 0.660222 52.0486Q0.879942 50.5673 1.17208 49.0987Q1.46421 47.63 1.82806 46.1774Q2.19191 44.7249 2.6266 43.2919Q3.06128 41.859 3.56575 40.4491Q4.07023 39.0391 4.64327 37.6557Q5.21632 36.2722 5.85656 34.9186Q6.4968 33.5649 7.20268 32.2443Q7.90857 30.9236 8.67841 29.6392Q9.44825 28.3548 10.2802 27.1098Q11.1121 25.8647 12.0041 24.6619Q12.8962 23.4592 13.8461 22.3016Q14.7961 21.1441 15.8017 20.0346Q16.8073 18.925 17.8662 17.8662Q18.925 16.8073 20.0346 15.8017Q21.1441 14.7961 22.3016 13.8461Q23.4592 12.8962 24.6619 12.0041Q25.8647 11.1121 27.1098 10.2802Q28.3548 9.44825 29.6392 8.67841Q30.9236 7.90857 32.2443 7.20268Q33.5649 6.49679 34.9186 5.85656Q36.2722 5.21632 37.6557 4.64327Q39.0391 4.07023 40.4491 3.56575Q41.859 3.06128 43.2919 2.6266Q44.7249 2.19191 46.1774 1.82806Q47.63 1.46421 49.0987 1.17208Q50.5673 0.879942 52.0486 0.660222Q53.5298 0.440502 55.0201 0.293727Q56.5103 0.146952 58.0059 0.0734759Q59.5016 0 60.999 0Z" id="Rectangle" fill="#FFFFFF" fill-rule="evenodd" stroke="none" />
      <path d="M149.202 259.057C149.202 259.057 149.202 154.548 149.202 129.504C149.202 119.499 162.302 106.453 173.643 106.453C199.614 106.453 301.806 106.453 301.806 106.453L149.202 259.057Z" id="Shape" fill="url(#gradient_1)" stroke="none" />
      <path d="M80.9268 259.161C80.9268 259.161 80.9268 154.652 80.9268 129.607C80.9268 119.603 94.0263 106.557 105.367 106.557C131.338 106.557 233.531 106.557 233.531 106.557L80.9268 259.161Z" id="Shape" fill="url(#gradient_2)" stroke="none" />
      <path d="M80.8437 184.657C80.8437 184.657 80.8437 154.569 80.8437 129.524C80.8437 119.52 93.9432 106.474 105.284 106.474C131.255 106.474 165.172 106.474 165.172 106.474L80.8437 184.657Z" id="Shape" fill="url(#gradient_3)" stroke="none" />
    </g>
    <g id="React-Icon" transform="translate(267.81042 275.94083)">
      <g id="Rings">
        <path d="M65.1895 28.957C65.1895 24.4561 59.8176 20.4635 51.4692 18.0679C53.4293 9.71954 52.7034 3.04088 48.7833 0.790459C44.8632 -1.45996 38.6927 1.22602 32.5222 7.17874C26.2791 1.29862 20.1086 -1.38737 16.2611 0.863053C12.4136 3.11347 11.6151 9.79213 13.6477 18.2131C5.37197 20.6087 0 24.6013 0 29.1022C0 33.603 5.37197 37.5957 13.7203 39.9913C11.7603 48.3396 12.4862 55.0183 16.4063 57.2687C20.3264 59.5191 26.4969 56.8331 32.6674 50.8804C38.9105 56.7605 45.081 59.4465 48.9285 57.1961C52.7759 54.9457 53.5745 48.267 51.5418 39.8461C59.8176 37.4505 65.1895 33.4578 65.1895 28.957L65.1895 28.957ZM47.3314 3.40384C50.2352 5.07351 50.5981 10.4455 48.8559 17.4145C45.9626 16.7558 43.0279 16.295 40.072 16.0352C38.3412 13.635 36.4494 11.3551 34.4096 9.21138C39.5638 4.05719 44.4276 1.66158 47.3314 3.40384L47.3314 3.40384ZM41.669 34.3289C40.6527 36.0712 39.6364 37.7409 38.5475 39.3379C36.5874 39.4831 34.6274 39.5557 32.5222 39.5557L26.642 39.3379C25.5531 37.7409 24.4642 35.9986 23.4479 34.2564C22.4316 32.5141 21.4879 30.7718 20.6893 29.0296C21.5605 27.2873 22.4316 25.4725 23.5205 23.7302C24.6094 21.9879 25.5531 20.3183 26.642 18.7212C28.6021 18.576 30.5621 18.5034 32.6674 18.5034L38.5475 18.7212C39.6364 20.3183 40.7253 22.0605 41.7416 23.8028C42.7579 25.5451 43.7017 27.2873 44.5002 29.0296C43.6291 30.7718 42.6853 32.5141 41.669 34.3289L41.669 34.3289ZM46.0247 32.3689C46.8232 34.2564 47.5492 36.1438 48.1299 37.9587C46.3151 38.3942 44.355 38.6846 42.2498 38.975L44.1372 35.7808L46.0247 32.3689ZM32.6674 46.9603C31.4333 45.581 30.1266 44.0566 28.8925 42.3869L36.4423 42.3869C35.2082 43.984 33.9015 45.581 32.6674 46.9603L32.6674 46.9603ZM23.0123 38.975C20.9071 38.7572 18.9471 38.3942 17.1322 38.0313C17.713 36.2164 18.3663 34.4016 19.1649 32.4415L20.9797 35.7083L23.0123 38.975ZM19.1648 25.6902C18.3663 23.8028 17.6404 21.9153 17.0596 20.1005C18.8745 19.6649 20.8345 19.3746 22.9397 19.0842L21.0523 22.2783L19.1648 25.6902ZM32.5222 11.0988C33.7563 12.4781 35.063 14.0026 36.2971 15.6723L28.7473 15.6723C29.9814 14.0752 31.2881 12.4781 32.5222 11.0988L32.5222 11.0988ZM44.2098 22.3509L42.1772 19.0842C44.2824 19.302 46.2425 19.6649 48.0573 20.0279C47.4766 21.8428 46.8232 23.6576 46.0247 25.6176L44.2098 22.3509ZM17.713 3.47645C20.6167 1.80678 25.408 4.1298 30.5621 9.13879C28.5447 11.3082 26.6771 13.6123 24.9724 16.0352C22.0392 16.3221 19.1288 16.8072 16.2611 17.4871C14.4462 10.5181 14.8092 5.14611 17.713 3.47645L17.713 3.47645ZM2.97636 29.1022C2.97636 25.7628 7.4046 22.7139 14.301 20.8264C15.177 23.6542 16.2442 26.4191 17.4952 29.1021C16.2689 31.787 15.226 34.552 14.3736 37.3779C7.4772 35.4905 2.97636 32.5141 2.97636 29.1022L2.97636 29.1022ZM17.8582 54.6553C14.9544 52.9856 14.5914 47.6137 16.3337 40.6446C19.2269 41.3033 22.1617 41.7642 25.1176 42.0239C26.8483 44.4241 28.7401 46.7039 30.7798 48.8477C25.6257 54.002 20.7619 56.3976 17.8582 54.6553L17.8582 54.6553ZM47.4766 54.5827C44.5728 56.2524 39.7816 53.9294 34.6274 48.9204C36.6449 46.7509 38.5124 44.4468 40.2171 42.0239C43.1503 41.737 46.0607 41.2519 48.9284 40.572C50.7433 47.5411 50.3803 52.913 47.4766 54.5827L47.4766 54.5827ZM50.8159 37.2327C49.9399 34.405 48.8727 31.6401 47.6218 28.9571C48.848 26.2722 49.8909 23.5072 50.7433 20.6813C57.7123 22.5687 62.1406 25.5451 62.1406 28.957C62.1406 32.3689 57.7123 35.3453 50.8159 37.2327L50.8159 37.2327Z" id="Shape" fill="#59C9F1" fill-rule="evenodd" stroke="none" />
      </g>
      <g id="Circle" transform="translate(26.787249 23.222055)">
        <path d="M0 5.80753C0 2.60012 2.60012 0 5.80753 0C9.01494 0 11.6151 2.60012 11.6151 5.80753C11.6151 9.01494 9.01494 11.6151 5.80753 11.6151C2.60012 11.6151 0 9.01494 0 5.80753Z" id="Circle" fill="#59C9F1" fill-rule="evenodd" stroke="none" />
      </g>
    </g>
  </g>
</svg>