<?xml version="1.0" encoding="utf-8"?>
<svg width="500px" height="250px" viewBox="0 0 500 250" version="1.1" xmlns:xlink="http://www.w3.org/1999/xlink" xmlns="http://www.w3.org/2000/svg">
  <defs>
    <linearGradient gradientUnits="userSpaceOnUse" x1="0" y1="26.382477" x2="48.9631" y2="26.382477" id="gradient_1">
      <stop offset="0%" stop-color="#808CFF" />
      <stop offset="100%" stop-color="#7381FF" />
    </linearGradient>
    <linearGradient gradientUnits="userSpaceOnUse" x1="0" y1="26.382486" x2="48.96309" y2="26.382486" id="gradient_2">
      <stop offset="0%" stop-color="#80B3FF" />
      <stop offset="100%" stop-color="#73ABFF" />
    </linearGradient>
    <linearGradient gradientUnits="userSpaceOnUse" x1="0" y1="26.382483" x2="48.963108" y2="26.382483" id="gradient_3">
      <stop offset="0%" stop-color="#80D9FF" />
      <stop offset="100%" stop-color="#73D5FF" />
    </linearGradient>
    <rect width="500" height="250" id="artboard_1" />
    <clipPath id="clip_1">
      <use xlink:href="#artboard_1" clip-rule="evenodd" />
    </clipPath>
  </defs>
  <g id="Image-for-WuX-UI-React-Docs" clip-path="url(#clip_1)">
    <use xlink:href="#artboard_1" stroke="none" fill="#C8CFFE" />
    <g id="Title-with-React" transform="translate(15 217.97)" artboard="76d662fa-1a3d-46ef-a716-f8b6e2032046">
      <g id="Title">
        <g id="React-Icon" transform="translate(137.8983 0.015594482)">
          <g id="Rings">
            <path d="M19.1017 8.48492C19.1017 7.1661 17.5276 5.99617 15.0814 5.29421C15.6558 2.848 15.443 0.891032 14.2944 0.231619C13.1457 -0.427795 11.3377 0.359247 9.52959 2.1035C7.70025 0.380519 5.89218 -0.406523 4.7648 0.25289C3.63741 0.912304 3.40343 2.86927 3.99902 5.33676C1.57408 6.03871 0 7.20864 0 8.52747C0 9.84629 1.57408 11.0162 4.0203 11.7182C3.44597 14.1644 3.65868 16.1214 4.80734 16.7808C5.95599 17.4402 7.76406 16.6531 9.57213 14.9089C11.4015 16.6319 13.2095 17.4189 14.3369 16.7595C15.4643 16.1001 15.6983 14.1431 15.1027 11.6756C17.5276 10.9737 19.1017 9.80375 19.1017 8.48492L19.1017 8.48492ZM13.869 0.997402C14.7198 1.48664 14.8262 3.06073 14.3157 5.10278C13.4679 4.90977 12.6079 4.77474 11.7418 4.69863C11.2347 3.99532 10.6803 3.32728 10.0826 2.69912C11.5929 1.18884 13.0181 0.486888 13.869 0.997402L13.869 0.997402ZM12.2098 10.059C11.912 10.5695 11.6142 11.0588 11.2951 11.5267C10.7208 11.5693 10.1465 11.5906 9.52959 11.5906L7.80661 11.5267C7.48754 11.0588 7.16847 10.5483 6.87067 10.0377C6.57287 9.52723 6.29634 9.01671 6.06235 8.5062C6.31761 7.99568 6.57287 7.4639 6.89194 6.95339C7.21101 6.44287 7.48754 5.95363 7.80661 5.48566C8.38094 5.44312 8.95526 5.42184 9.57213 5.42184L11.2951 5.48566C11.6142 5.95363 11.9333 6.46414 12.2311 6.97466C12.5289 7.48517 12.8054 7.99568 13.0394 8.5062C12.7841 9.01671 12.5076 9.52723 12.2098 10.059L12.2098 10.059ZM13.4861 9.48468C13.7201 10.0377 13.9328 10.5908 14.1029 11.1226C13.5712 11.2502 12.9968 11.3353 12.38 11.4204L12.933 10.4844L13.4861 9.48468ZM9.57214 13.7602C9.21053 13.3561 8.82764 12.9094 8.46603 12.4201L10.6783 12.4201C10.3166 12.8881 9.93375 13.3561 9.57214 13.7602L9.57214 13.7602ZM6.74304 11.4204C6.12617 11.3566 5.55184 11.2502 5.02006 11.1439C5.19023 10.6121 5.38167 10.0803 5.61566 9.50596L6.14744 10.4632L6.74304 11.4204ZM5.61565 7.5277C5.38167 6.97465 5.16895 6.42159 4.99878 5.88981C5.53057 5.76218 6.1049 5.67709 6.72177 5.59201L6.16871 6.52795L5.61565 7.5277ZM9.52959 3.25216C9.89121 3.65632 10.2741 4.10302 10.6357 4.59226L8.42348 4.59226C8.7851 4.12429 9.16798 3.65632 9.52959 3.25216L9.52959 3.25216ZM12.9543 6.54922L12.3587 5.59201C12.9756 5.65582 13.5499 5.76218 14.0817 5.86854C13.9115 6.40032 13.7201 6.93211 13.4861 7.50643L12.9543 6.54922ZM5.19022 1.01867C6.04108 0.529429 7.44499 1.21011 8.95526 2.67784C8.36411 3.31352 7.81688 3.98867 7.31737 4.69862C6.45789 4.78269 5.60509 4.92483 4.7648 5.12405C4.23301 3.082 4.33936 1.50791 5.19022 1.01867L5.19022 1.01867ZM0.872124 8.52747C0.872124 7.54899 2.16968 6.65559 4.19046 6.10253C4.44714 6.93111 4.75984 7.74128 5.1264 8.52745C4.76708 9.31418 4.46149 10.1244 4.21174 10.9524C2.19095 10.3994 0.872124 9.52723 0.872124 8.52747L0.872124 8.52747ZM5.23276 16.015C4.3819 15.5258 4.27555 13.9517 4.78606 11.9096C5.63383 12.1026 6.49377 12.2377 7.3599 12.3138C7.86703 13.0171 8.42136 13.6851 9.01904 14.3133C7.5088 15.8236 6.08362 16.5255 5.23276 16.015L5.23276 16.015ZM13.9115 15.9937C13.0607 16.483 11.6567 15.8023 10.1465 14.3346C10.7376 13.6989 11.2848 13.0237 11.7844 12.3138C12.6438 12.2297 13.4966 12.0876 14.3369 11.8884C14.8687 13.9304 14.7624 15.5045 13.9115 15.9937L13.9115 15.9937ZM14.89 10.9099C14.6333 10.0813 14.3206 9.27113 13.9541 8.48496C14.3134 7.69823 14.619 6.88806 14.8687 6.06001C16.9108 6.61306 18.2083 7.48518 18.2083 8.48494C18.2083 9.4847 16.9108 10.3568 14.89 10.9099L14.89 10.9099Z" id="Shape" fill="#59C9F1" fill-rule="evenodd" stroke="none" />
          </g>
          <g id="Circle" transform="translate(7.849157 6.8044853)">
            <path d="M0 1.70171C0 0.761883 0.761883 0 1.70171 0C2.64154 0 3.40342 0.761883 3.40342 1.70171C3.40342 2.64154 2.64154 3.40343 1.70171 3.40343C0.761883 3.40343 0 2.64154 0 1.70171Z" id="Circle" fill="#59C9F1" fill-rule="evenodd" stroke="none" />
          </g>
        </g>
        <g id="WuX-UI-React-Docs" fill="#6674FF">
          <path d="M3.17685 13.5909L0.263494 3.40909L2.61506 3.40909L4.30043 10.4837L4.38494 10.4837L6.24432 3.40909L8.25781 3.40909L10.1122 10.4986L10.2017 10.4986L11.8871 3.40909L14.2386 3.40909L11.3253 13.5909L9.22727 13.5909L7.28835 6.93395L7.20881 6.93395L5.27486 13.5909L3.17685 13.5909ZM28.1641 6.87926L26.1108 3.40909L23.6697 3.40909L26.7969 8.5L23.6101 13.5909L26.076 13.5909L28.1641 10.1158L28.2436 10.1158L30.3317 13.5909L32.8075 13.5909L29.6307 8.5L32.7379 3.40909L30.3068 3.40909L28.2436 6.87926L28.1641 6.87926ZM49.0994 3.40909L46.9467 3.40909L46.9467 9.83736Q46.9467 10.7074 46.3825 11.2741Q45.8182 11.8409 44.8786 11.8409Q43.9439 11.8409 43.3771 11.2741Q42.8104 10.7074 42.8104 9.83736L42.8104 3.40909L40.6577 3.40909L40.6577 10.0213Q40.6577 11.1349 41.1847 11.9702Q41.7116 12.8054 42.6612 13.2702Q43.6108 13.7351 44.8786 13.7351Q46.1463 13.7351 47.0959 13.2702Q48.0455 12.8054 48.5724 11.9702Q49.0994 11.1349 49.0994 10.0213L49.0994 3.40909ZM53.022 13.5909L50.8693 13.5909L50.8693 3.40909L53.022 3.40909L53.022 13.5909ZM62.0604 3.40909L58.0433 3.40909L58.0433 13.5909L60.196 13.5909L60.196 9.98153L61.767 9.98153L63.696 13.5909L66.0724 13.5909L63.9098 9.63352Q64.7798 9.26065 65.2447 8.51989Q65.7095 7.77912 65.7095 6.73509Q65.7095 5.21875 64.7525 4.31392Q63.7955 3.40909 62.0604 3.40909ZM104.239 13.5909L100.63 13.5909L100.63 3.40909L104.269 3.40909Q105.805 3.40909 106.917 4.01811Q108.028 4.62713 108.624 5.76563Q109.221 6.90412 109.221 8.49006Q109.221 10.081 108.622 11.2244Q108.023 12.3679 106.907 12.9794Q105.79 13.5909 104.239 13.5909ZM95.9666 7.54545L95.9666 5.95455L94.5298 5.95455L94.5298 4.125L92.4119 4.125L92.4119 5.95455L91.3679 5.95455L91.3679 7.54545L92.4119 7.54545L92.4119 11.5227Q92.407 12.6463 93.1055 13.1957Q93.804 13.745 94.9574 13.6953Q95.37 13.6804 95.6584 13.6133Q95.9467 13.5462 96.1058 13.4964L95.7727 11.9205Q95.6932 11.9354 95.544 11.9627Q95.3949 11.9901 95.2457 11.9901Q94.9276 11.9901 94.7287 11.8359Q94.5298 11.6818 94.5298 11.2443L94.5298 7.54545L95.9666 7.54545ZM61.6577 8.25142L60.196 8.25142L60.196 5.16903L61.6477 5.16903Q63.4922 5.16903 63.4922 6.73509Q63.4922 7.35055 63.19 7.71621Q62.7476 8.25142 61.6577 8.25142ZM102.783 11.7464L104.15 11.7464Q105.587 11.7464 106.33 10.9709Q107.073 10.1953 107.073 8.49006Q107.073 6.79474 106.33 6.02415Q105.587 5.25355 104.155 5.25355L102.783 5.25355L102.783 11.7464ZM70.6712 13.7401Q69.4979 13.7401 68.6477 13.2603Q67.7976 12.7805 67.3402 11.8981Q66.8828 11.0156 66.8828 9.80753Q66.8828 8.62926 67.3402 7.73935Q67.7976 6.84943 68.6303 6.35227Q69.4631 5.85511 70.5866 5.85511Q71.5959 5.85511 72.4087 6.28267Q73.2216 6.71023 73.6989 7.5728Q74.1761 8.43537 74.1761 9.73295L74.1761 10.3146L68.9759 10.3146L68.9759 10.3196Q68.9759 11.1747 69.4432 11.6669Q69.9105 12.1591 70.706 12.1591Q71.2379 12.1591 71.6257 11.9354Q72.0135 11.7116 72.1726 11.2741L74.1314 11.4034Q73.9077 12.4673 72.9979 13.1037Q72.0881 13.7401 70.6712 13.7401ZM75.9212 13.1634Q76.642 13.7351 77.7358 13.7351Q78.581 13.7351 79.1353 13.3995Q79.6896 13.0639 79.968 12.532L80.0277 12.532L80.0277 13.5909L82.0362 13.5909L82.0362 8.44034Q82.0362 7.53054 81.5813 6.96129Q81.1264 6.39204 80.3857 6.12358Q79.6449 5.85511 78.7947 5.85511Q77.4226 5.85511 76.555 6.46662Q75.6875 7.07813 75.4688 8.12216L77.4276 8.28125Q77.5369 7.89844 77.875 7.64986Q78.2131 7.40128 78.7848 7.40128Q79.3267 7.40128 79.6225 7.6598Q79.9183 7.91832 79.9183 8.39063L79.9183 8.42045Q79.9183 8.78835 79.4908 8.89773Q79.0632 9.0071 78.0689 9.10653Q77.3132 9.17614 76.6594 9.40234Q76.0057 9.62855 75.603 10.1158Q75.2003 10.603 75.2003 11.4581Q75.2003 12.5916 75.9212 13.1634ZM87.1321 13.7401Q85.9588 13.7401 85.1161 13.2404Q84.2734 12.7408 83.8235 11.8509Q83.3736 10.9609 83.3736 9.80256Q83.3736 8.62926 83.8285 7.74183Q84.2834 6.8544 85.1236 6.35476Q85.9638 5.85511 87.1222 5.85511Q88.1214 5.85511 88.8746 6.21804Q89.6278 6.58097 90.0629 7.23722Q90.4979 7.89347 90.5426 8.77841L88.544 8.77841Q88.4595 8.20668 88.0991 7.85618Q87.7386 7.50568 87.157 7.50568Q86.4212 7.50568 85.9737 8.0973Q85.5263 8.68892 85.5263 9.77273Q85.5263 10.8665 85.9712 11.4656Q86.4162 12.0646 87.157 12.0646Q87.7038 12.0646 88.0767 11.734Q88.4496 11.4034 88.544 10.7919L90.5426 10.7919Q90.4929 11.6669 90.0678 12.3331Q89.6428 12.9993 88.897 13.3697Q88.1513 13.7401 87.1321 13.7401ZM112.221 13.2454Q113.064 13.7401 114.222 13.7401Q115.381 13.7401 116.223 13.2454Q117.066 12.7507 117.523 11.8633Q117.981 10.9759 117.981 9.80256Q117.981 8.61932 117.523 7.73189Q117.066 6.84446 116.223 6.34979Q115.381 5.85511 114.222 5.85511Q113.064 5.85511 112.221 6.34979Q111.379 6.84446 110.921 7.73189Q110.464 8.61932 110.464 9.80256Q110.464 10.9759 110.921 11.8633Q111.379 12.7507 112.221 13.2454ZM122.813 13.7401Q121.64 13.7401 120.797 13.2404Q119.955 12.7408 119.505 11.8509Q119.055 10.9609 119.055 9.80256Q119.055 8.62926 119.51 7.74183Q119.964 6.8544 120.805 6.35476Q121.645 5.85511 122.803 5.85511Q123.803 5.85511 124.556 6.21804Q125.309 6.58097 125.744 7.23722Q126.179 7.89347 126.224 8.77841L124.225 8.77841Q124.141 8.20668 123.78 7.85618Q123.42 7.50568 122.838 7.50568Q122.102 7.50568 121.655 8.0973Q121.207 8.68892 121.207 9.77273Q121.207 10.8665 121.652 11.4656Q122.097 12.0646 122.838 12.0646Q123.385 12.0646 123.758 11.734Q124.131 11.4034 124.225 10.7919L126.224 10.7919Q126.174 11.6669 125.749 12.3331Q125.324 12.9993 124.578 13.3697Q123.832 13.7401 122.813 13.7401ZM132.001 8.25142L133.94 8.1321Q133.8 7.07813 132.968 6.46662Q132.135 5.85511 130.688 5.85511Q129.222 5.85511 128.334 6.49148Q127.447 7.12784 127.452 8.23153Q127.442 9.97159 129.659 10.4141L130.982 10.6776Q131.946 10.8714 131.961 11.4382Q131.956 11.7763 131.615 11.995Q131.275 12.2138 130.718 12.2138Q130.151 12.2138 129.791 11.9751Q129.43 11.7365 129.331 11.2692L127.248 11.3786Q127.397 12.4723 128.297 13.1062Q129.197 13.7401 130.713 13.7401Q131.702 13.7401 132.468 13.4244Q133.234 13.1087 133.674 12.5419Q134.114 11.9751 134.114 11.2244Q134.109 9.60866 131.906 9.15625L130.524 8.87784Q129.992 8.76349 129.771 8.57457Q129.55 8.38565 129.555 8.11222Q129.55 7.76918 129.89 7.56285Q130.231 7.35653 130.723 7.35653Q131.275 7.35653 131.598 7.62003Q131.921 7.88352 132.001 8.25142ZM20.2443 10.3395L20.2443 5.95455L22.3622 5.95455L22.3622 13.5909L20.3288 13.5909L20.3288 12.2038L20.2493 12.2038Q19.9908 12.875 19.3917 13.2827Q18.7926 13.6903 17.9325 13.6903Q16.7791 13.6903 16.0657 12.9222Q15.3523 12.1541 15.3473 10.8168L15.3473 5.95455L17.4652 5.95455L17.4652 10.4389Q17.4702 11.1151 17.8281 11.5078Q18.1861 11.9006 18.7876 11.9006Q19.3594 11.9006 19.8043 11.5028Q20.2493 11.1051 20.2443 10.3395ZM68.9759 9.00213L72.1825 9.00213Q72.1776 8.32102 71.745 7.87855Q71.3125 7.43608 70.6214 7.43608Q69.9155 7.43608 69.4631 7.89347Q69.0107 8.35085 68.9759 9.00213ZM115.423 11.4432Q115.018 12.0994 114.232 12.0994Q113.432 12.0994 113.024 11.4432Q112.616 10.7869 112.616 9.78764Q112.616 8.78835 113.024 8.12962Q113.432 7.47088 114.232 7.47088Q115.018 7.47088 115.423 8.12962Q115.828 8.78835 115.828 9.78764Q115.828 10.7869 115.423 11.4432ZM38.8132 8.5696L38.8132 10.25L34.1697 10.25L34.1697 8.5696L38.8132 8.5696ZM79.4858 11.8683Q79.0384 12.2734 78.3423 12.2734Q77.8551 12.2734 77.5394 12.0497Q77.2237 11.826 77.2237 11.3885Q77.2237 10.9411 77.5643 10.7074Q77.9048 10.4737 78.4616 10.3942Q78.6953 10.3594 78.9911 10.3121Q79.2869 10.2649 79.5479 10.2003Q79.8089 10.1357 79.9332 10.0511L79.9332 10.8615Q79.9332 11.4631 79.4858 11.8683Z" />
        </g>
      </g>
    </g>
    <g id="Doc-Icon" transform="translate(187 50.4375)" artboard="678a6056-89bf-4029-974a-ba27a1da9e2e">
      <path d="M92.6042 0L9.999 0Q9.75354 0 9.50837 0.0120442Q9.26321 0.0240885 9.01893 0.0481479Q8.77465 0.0722074 8.53184 0.108224Q8.28904 0.144241 8.04829 0.192128Q7.80755 0.240015 7.56944 0.299657Q7.33134 0.3593 7.09644 0.430553Q6.86155 0.501807 6.63044 0.584501Q6.39932 0.667194 6.17255 0.761128Q5.94577 0.855062 5.72388 0.960011Q5.50198 1.06496 5.2855 1.18067Q5.06903 1.29638 4.85849 1.42257Q4.64795 1.54876 4.44385 1.68514Q4.23976 1.82151 4.0426 1.96773Q3.84545 2.11395 3.6557 2.26967Q3.46596 2.42539 3.28408 2.59023Q3.10221 2.75507 2.92864 2.92864Q2.75507 3.10221 2.59023 3.28408Q2.42539 3.46596 2.26967 3.6557Q2.11395 3.84545 1.96773 4.0426Q1.82151 4.23976 1.68514 4.44385Q1.54876 4.64795 1.42257 4.85849Q1.29638 5.06903 1.18067 5.2855Q1.06496 5.50198 0.960011 5.72388Q0.855063 5.94577 0.761128 6.17255Q0.667194 6.39932 0.584501 6.63044Q0.501807 6.86155 0.430554 7.09644Q0.3593 7.33134 0.299657 7.56944Q0.240015 7.80755 0.192128 8.04829Q0.144241 8.28904 0.108224 8.53184Q0.0722074 8.77465 0.0481479 9.01893Q0.0240885 9.26321 0.0120442 9.50837Q0 9.75354 0 9.999L0 140.813Q0 141.059 0.0120442 141.304Q0.0240885 141.549 0.0481479 141.794Q0.0722074 142.038 0.108224 142.281Q0.144241 142.523 0.192128 142.764Q0.240015 143.005 0.299657 143.243Q0.3593 143.481 0.430553 143.716Q0.501807 143.951 0.584501 144.182Q0.667194 144.413 0.761128 144.64Q0.855062 144.867 0.960011 145.089Q1.06496 145.31 1.18067 145.527Q1.29638 145.743 1.42257 145.954Q1.54876 146.165 1.68514 146.369Q1.82151 146.573 1.96773 146.77Q2.11395 146.967 2.26967 147.157Q2.42539 147.346 2.59023 147.528Q2.75507 147.71 2.92864 147.884Q3.10221 148.057 3.28408 148.222Q3.46596 148.387 3.6557 148.543Q3.84545 148.699 4.0426 148.845Q4.23976 148.991 4.44385 149.127Q4.64795 149.264 4.85849 149.39Q5.06903 149.516 5.2855 149.632Q5.50198 149.747 5.72388 149.852Q5.94577 149.957 6.17255 150.051Q6.39932 150.145 6.63044 150.228Q6.86155 150.311 7.09644 150.382Q7.33134 150.453 7.56944 150.513Q7.80755 150.572 8.04829 150.62Q8.28904 150.668 8.53184 150.704Q8.77465 150.74 9.01893 150.764Q9.26321 150.788 9.50837 150.8Q9.75354 150.812 9.999 150.812L117.001 150.812Q117.246 150.812 117.492 150.8Q117.737 150.788 117.981 150.764Q118.225 150.74 118.468 150.704Q118.711 150.668 118.952 150.62Q119.192 150.572 119.431 150.513Q119.669 150.453 119.904 150.382Q120.138 150.311 120.37 150.228Q120.601 150.145 120.827 150.051Q121.054 149.957 121.276 149.852Q121.498 149.747 121.714 149.632Q121.931 149.516 122.141 149.39Q122.352 149.264 122.556 149.127Q122.76 148.991 122.957 148.845Q123.155 148.699 123.344 148.543Q123.534 148.387 123.716 148.222Q123.898 148.057 124.071 147.884Q124.245 147.71 124.41 147.528Q124.575 147.346 124.73 147.157Q124.886 146.967 125.032 146.77Q125.178 146.573 125.315 146.369Q125.451 146.165 125.577 145.954Q125.704 145.743 125.819 145.527Q125.935 145.31 126.04 145.089Q126.145 144.867 126.239 144.64Q126.333 144.413 126.416 144.182Q126.498 143.951 126.569 143.716Q126.641 143.481 126.7 143.243Q126.76 143.005 126.808 142.764Q126.856 142.523 126.892 142.281Q126.928 142.038 126.952 141.794Q126.976 141.549 126.988 141.304Q127 141.059 127 140.813L127 34.3958L92.6042 0ZM92.6042 34.3958L92.6042 10.5833L116.417 34.3958L92.6042 34.3958Z" id="Rectangle-2-Difference" fill="#E6E9FF" fill-rule="evenodd" stroke="none" />
    </g>
    <g id="WuX-UI-Icon" transform="translate(208 83)" artboard="8bbecf48-fe66-4cec-9678-afa09332973f">
      <g id="WuX-UI-Icon">
        <path d="M0 0L85 0L85 85L0 85L0 0Z" id="Rectangle" fill="#FFFFFF" fill-opacity="0" fill-rule="evenodd" stroke="none" />
        <path d="M29.2187 68.7935C29.2187 68.7935 29.2187 32.658 29.2187 23.9986C29.2187 20.5394 33.4217 16.0286 37.0605 16.0286C45.3932 16.0286 78.1818 16.0286 78.1818 16.0286L29.2187 68.7935Z" id="Shape" fill="url(#gradient_1)" fill-rule="evenodd" stroke="none" />
        <path d="M7.31236 68.8294C7.31236 68.8294 7.31236 32.6939 7.31236 24.0345C7.31236 20.5753 11.5153 16.0645 15.1542 16.0645C23.4869 16.0645 56.2754 16.0645 56.2754 16.0645L7.31236 68.8294Z" id="Shape" fill="url(#gradient_2)" fill-rule="evenodd" stroke="none" />
        <path d="M7.2857 43.0688C7.2857 43.0688 7.2857 32.6652 7.2857 24.0058C7.2857 20.5465 11.4887 16.0358 15.1275 16.0358C23.4602 16.0358 34.3425 16.0358 34.3425 16.0358L7.2857 43.0688Z" id="Shape" fill="url(#gradient_3)" fill-rule="evenodd" stroke="none" />
      </g>
    </g>
  </g>
</svg>